# xmcd
#
# Track frame offsets:
# 150
# 12740
# 27085
# 41735
# 55025
# 70320
# 85200
# 104742
# 122855
# 138570
# 155332
# 170267
# 187025
# 202230
# 217542
# 231820
# 246290
# 262582
# 280657
# 295822
#
# Disc length: 4147 seconds
#
#
# Revision: 2
# Processed by: cddbd v1.4PL0 Copyright (c) Steve Scherf et al.
# Submitted via: FreeRIP 2.12 
#
DISCID=23103114
DTITLE=The Bellamy Brothers - Best Of The Best
DYEAR=1900
DGENRE=
TTITLE0=Let Your Love Flow
TTITLE1=If I Said You Had A Beautiful Body
TTITLE2=Dancin` Cowboys
TTITLE3=Do You Love As Good As You Look
TTITLE4=Redneck Girl
TTITLE5=Lovers Live Longer
TTITLE6=You Aint` Just Whistlin`Dixie
TTITLE7=Old Hippie
TTITLE8=Sugar Daddy
TTITLE9=Santa Fe
TTITLE10=How Can You Be Everywhere At The Same Time
TTITLE11=For All The Wrong Reasons
TTITLE12=Big Love
TTITLE13=I Need More Of You
TTITLE14=Get Your Priorities In Line
TTITLE15=A Little Naive
TTITLE16=Crazy FromThe Heart
TTITLE17=We Don`t Wanna Go For It
TTITLE18=Cant I Come Home To You
TTITLE19=You`ll Never Be Sorry
EXTD=
EXTT0=
EXTT1=
EXTT2=
EXTT3=
EXTT4=
EXTT5=
EXTT6=
EXTT7=
EXTT8=
EXTT9=
EXTT10=
EXTT11=
EXTT12=
EXTT13=
EXTT14=
EXTT15=
EXTT16=
EXTT17=
EXTT18=
EXTT19=
PLAYORDER=
